<?xml version="1.0" encoding="utf-8"?>
<?xml-stylesheet type="text/xsl" href="rss1.xsl"?>
<rss version="2.0" xmlns:atom="http://www.w3.org/2005/Atom" xmlns:content="http://purl.org/rss/1.0/modules/content/" xmlns:dc="http://purl.org/dc/elements/1.1/" xmlns:media="http://search.yahoo.com/mrss/">
<channel>
 <title>Getty</title>
 <link>http://www.gettyimg.com/</link>
 <atom:link href="http://www.gettyimg.com/" rel="self" type="application/rss+xml" />

 
                <item>
                <title><![CDATA[【Apple Music】WEB-RiP - RM - LOST! 'A.M WEB-DL.4K.AAC2.0-fstambuk']]></title>
                <link><![CDATA[https://sharemania.us/threads/rm-lost-a-m-web-dl-4k-aac2-0-fstambuk.245101/]]></link>
                <description><![CDATA[<article>
<blockquote class="messageText SelectQuoteContainer ugc baseHtml">
<div style="text-align: center"><img src="https://i.ibb.co/cxYkrPS/RM-LOST-A-M-WEB-DL-4-K-AAC2-0-fstambuk-VTM.gif" class="bbCodeImage LbImage" alt="[​IMG]" data-url="https://i.ibb.co/cxYkrPS/RM-LOST-A-M-WEB-DL-4-K-AAC2-0-fstambuk-VTM.gif" style=""><br>
​</div>
<div class="ToggleTriggerAnchor bbCodeSpoilerContainer">
<button type="button" class="button bbCodeSpoilerButton ToggleTrigger Tooltip JsOnly" data-target="> .SpoilerTarget"><span>Spoiler: <span class="SpoilerTitle">Apple Music</span></span></button>
<div class="SpoilerTarget bbCodeSpoilerText">
<div class="bbCodeBlock bbCodeCode">
<div class="type">Code:</div>
<pre>General
Complete name                            : RM - LOST! 'A.M WEB-DL.4K.AAC2.0-fstambuk'.m4v
Format                                   : MPEG-4
Format profile                           : Base Media
Codec ID                                 : isom (isom/iso2/mp41)
File size                                : 476 MiB
Duration                                 : 5 min 25 s
Overall bit rate                         : 12.3 Mb/s
Frame rate                               : 24.000 FPS
Movie name                               : LOST!
Performer                                : RM
Genre                                    : K-Pop
ContentType                              : Music Video
Recorded date                            : 2024-05-24 07:00:00 UTC
Copyright                                : ℗ 2024 BIGHIT MUSIC
Cover                                    : Yes
Rating                                   : Explicit
GenreID                                  : 1686
AlbumTitleID                             : 1439549457
AppleStoreCatalogID                      : 1747798115

Video
ID                                       : 1
Format                                   : HEVC
Format/Info                              : High Efficiency Video Coding
Format profile                           : Main 10@L5@High
Codec ID                                 : hvc1
Codec ID/Info                            : High Efficiency Video Coding
Duration                                 : 5 min 24 s
Bit rate                                 : 12.0 Mb/s
Width                                    : 3 328 pixels
Height                                   : 2 160 pixels
Display aspect ratio                     : 3:2
Frame rate mode                          : Constant
Frame rate                               : 24.000 FPS
Color space                              : YUV
Chroma subsampling                       : 4:2:0
Bit depth                                : 10 bits
Scan type                                : Progressive
Bits/(Pixel*Frame)                       : 0.070
Stream size                              : 466 MiB (98%)
Title                                    : Core Media Video
Color range                              : Limited
Color primaries                          : BT.709
Transfer characteristics                 : BT.709
Matrix coefficients                      : BT.709
Codec configuration box                  : hvcC

Audio
ID                                       : 2
Format                                   : AAC LC
Format/Info                              : Advanced Audio Codec Low Complexity
Codec ID                                 : 2 / 40 / mp4a-40-2
Duration                                 : 5 min 25 s
Bit rate mode                            : Constant
Bit rate                                 : 250 kb/s
Channel(s)                               : 2 channels
Channel layout                           : L R
Sampling rate                            : 48.0 kHz
Frame rate                               : 46.875 FPS (1024 SPF)
Compression mode                         : Lossy
Stream size                              : 9.69 MiB (2%)
Title                                    : Core Media Audio
Default                                  : Yes
Alternate group                          : 1

</pre>
</div><div style="text-align: center">​</div></div>
</div><div style="text-align: center"><br>
<div class="bbCodeBlock bbCodeVfcHH HiddenContent">
<div class="attribution type">Hidden Content:</div>
<blockquote>You must reply before you can see the hidden data contained here.</blockquote>
</div></div>
<div class="messageTextEndMarker">&nbsp;</div>
</blockquote>
</article>]]></description>
                <author><![CDATA[fstambuk]]></author>
                </item>

                
                <item>
                <title><![CDATA[【Actresses】Emily Ratajkowski - Easy s01e05 (2016)1080p]]></title>
                <link><![CDATA[https://sharemania.us/threads/emily-ratajkowski-easy-s01e05-2016-1080p.245103/]]></link>
                <description><![CDATA[<article>
<blockquote class="messageText SelectQuoteContainer ugc baseHtml">
Emily Ratajkowski - Easy s01e05 (2016)1080p<br>
<br>
<a href="https://imgbox.com/XDpYweku" target="_blank" class="externalLink" rel="nofollow"><img src="https://thumbs2.imgbox.com/83/9a/XDpYweku_t.jpg" class="bbCodeImage LbImage" alt="[​IMG]" data-url="https://thumbs2.imgbox.com/83/9a/XDpYweku_t.jpg"></a> <a href="https://imgbox.com/kf6VVR9n" target="_blank" class="externalLink" rel="nofollow"><img src="https://thumbs2.imgbox.com/0e/ce/kf6VVR9n_t.jpg" class="bbCodeImage LbImage" alt="[​IMG]" data-url="https://thumbs2.imgbox.com/0e/ce/kf6VVR9n_t.jpg"></a> <a href="https://imgbox.com/J09gV5Xb" target="_blank" class="externalLink" rel="nofollow"><img src="https://thumbs2.imgbox.com/86/61/J09gV5Xb_t.jpg" class="bbCodeImage LbImage" alt="[​IMG]" data-url="https://thumbs2.imgbox.com/86/61/J09gV5Xb_t.jpg"></a> <a href="https://imgbox.com/YiFUfxt2" target="_blank" class="externalLink" rel="nofollow"><img src="https://thumbs2.imgbox.com/50/ac/YiFUfxt2_t.jpg" class="bbCodeImage LbImage" alt="[​IMG]" data-url="https://thumbs2.imgbox.com/50/ac/YiFUfxt2_t.jpg"></a> <a href="https://imgbox.com/AJEr8cJp" target="_blank" class="externalLink" rel="nofollow"><img src="https://thumbs2.imgbox.com/e7/cc/AJEr8cJp_t.jpg" class="bbCodeImage LbImage" alt="[​IMG]" data-url="https://thumbs2.imgbox.com/e7/cc/AJEr8cJp_t.jpg"></a> <a href="https://imgbox.com/aoOPyBHb" target="_blank" class="externalLink" rel="nofollow"><img src="https://thumbs2.imgbox.com/dc/2b/aoOPyBHb_t.jpg" class="bbCodeImage LbImage" alt="[​IMG]" data-url="https://thumbs2.imgbox.com/dc/2b/aoOPyBHb_t.jpg"></a><br>
Duration: 0:01:15 Resolution: 1920x1080 Format: mp4 Size: 40.6 MB<br>
<a href="https://filejoker.net/3cwj3q1wzieb" target="_blank" class="externalLink" rel="nofollow">https://filejoker.net/3cwj3q1wzieb</a>
<div class="messageTextEndMarker">&nbsp;</div>
</blockquote>
</article>]]></description>
                <author><![CDATA[piqeros]]></author>
                </item>

                </channel></rss>